<svg xmlns="http://www.w3.org/2000/svg" width="512" height="512" viewBox="0 0 56 56" fill="#288bdd"><path d="M19.714 43.611a1.1 1.1 0 0 0 1.515 0l29.825-29.822a3.21 3.21 0 0 1-1.987-1 .3.3 0 0 0-.023-.027L19.714 42.1a1.07 1.07 0 0 0 0 1.511zM55.66 13.525c-.268-.315-.677-.475-1.088-.426L22.645 45.025a3.07 3.07 0 1 1-4.345-4.343l29.689-29.689A5.75 5.75 0 0 1 48 8a5.75 5.75 0 0 1-2.994.012L15.318 37.7a3.07 3.07 0 0 1-4.344-4.345L42.9 1.429A1.24 1.24 0 0 0 42.473.34c-1.347-1.348-16.638.6-33.752 17.584C2.909 23.7-.025 29.247 0 34.424c.019 3.816 1.658 7.338 4.872 10.467l.19.186c1.285 1.08 3.162 1.08 4.447 0a1 1 0 1 1 1.414 1.414 3.46 3.46 0 0 0 0 4.448l.186.19c3.129 3.213 6.651 4.852 10.467 4.871h.068c5.158 0 10.685-2.935 16.432-8.723C55.066 30.164 57.01 14.875 55.66 13.525zm-36.736-1.6a58.26 58.26 0 0 1 1.785-1.286 1 1 0 1 1 1.145 1.638l-1.735 1.251a1 1 0 1 1-1.2-1.6zM4.145 34.34a1 1 0 1 1-2 0c.008-4.561 2.73-9.57 8.089-14.891a83.51 83.51 0 0 1 5.441-4.955 1 1 0 0 1 1.279 1.537c-1.8 1.5-3.589 3.126-5.31 4.837C6.675 25.8 4.151 30.33 4.145 34.34zm8.244.43a1.07 1.07 0 0 0 .452 1.842 1.07 1.07 0 0 0 1.059-.326l29.33-29.33a.3.3 0 0 0-.027-.023c-.559-.522-.913-1.225-1-1.985z"/></svg>
